<?xml version="1.0" standalone="no"?>
<!DOCTYPE svg PUBLIC "-//W3C//DTD SVG 20010904//EN"
 "http://www.w3.org/TR/2001/REC-SVG-20010904/DTD/svg10.dtd">
<svg version="1.0" xmlns="http://www.w3.org/2000/svg"
 width="864.000000pt" height="864.000000pt" viewBox="0 0 864.000000 864.000000"
 preserveAspectRatio="xMidYMid meet">
<metadata>
Created by potrace 1.14, written by Peter Selinger 2001-2017
</metadata>
<g transform="translate(0.000000,864.000000) scale(0.100000,-0.100000)"
fill="#000000" stroke="none">
<path d="M3935 8114 c-713 -77 -1376 -356 -1945 -818 -121 -98 -364 -341 -476
-475 -510 -612 -810 -1381 -842 -2159 -27 -662 97 -1251 385 -1826 174 -347
387 -641 678 -932 304 -305 632 -540 1003 -716 852 -405 1817 -470 2705 -182
1257 409 2187 1452 2456 2755 51 250 65 398 65 719 0 319 -14 471 -64 716
-189 916 -704 1715 -1453 2252 -519 373 -1121 600 -1761 667 -184 19 -570 18
-751 -1z m482 -1546 c57 -17 86 -65 206 -349 64 -151 206 -485 316 -744 l199
-470 244 -5 c163 -3 250 -9 264 -17 37 -22 83 -82 95 -125 20 -75 -24 -168
-94 -202 -28 -13 -67 -16 -185 -16 -83 0 -153 -4 -156 -9 -3 -4 27 -85 67
-179 l72 -172 233 0 c253 0 279 -5 335 -58 15 -14 34 -49 42 -76 14 -45 13
-56 0 -102 -17 -60 -64 -107 -122 -123 -21 -6 -103 -11 -182 -11 -132 0 -143
-1 -138 -17 2 -10 113 -272 244 -583 132 -311 243 -579 246 -596 7 -38 -8 -99
-35 -137 -59 -82 -201 -92 -272 -18 -27 29 -101 195 -441 999 l-149 352 -882
0 -881 0 -143 -337 c-337 -796 -421 -988 -442 -1011 -13 -13 -36 -31 -53 -39
-38 -20 -122 -20 -162 0 -64 34 -110 117 -100 183 3 18 116 294 251 613 135
319 246 582 246 585 0 3 -75 6 -167 6 -160 0 -168 1 -210 25 -66 39 -102 124
-83 196 11 41 57 101 94 122 14 8 103 14 274 17 l253 5 73 172 c40 95 71 175
68 178 -3 3 -73 5 -156 5 -132 0 -155 3 -193 21 -123 59 -129 244 -11 313 41
23 53 25 285 31 l242 8 137 321 c75 176 217 512 317 746 172 405 203 466 251
492 46 25 133 28 203 6z"/>
<path d="M4316 5962 c-7 -12 -406 -952 -406 -958 0 -2 187 -4 415 -4 228 0
415 2 415 4 0 2 -41 100 -91 218 -50 117 -140 330 -201 473 -61 143 -114 264
-118 268 -4 5 -10 4 -14 -1z"/>
<path d="M3735 4598 c-62 -136 -132 -314 -127 -320 13 -13 1432 4 1432 16 -1
6 -32 83 -69 171 l-68 160 -577 3 -576 2 -15 -32z"/>
</g>
</svg>
